HIERARCHY
ROOT Hips
{
  OFFSET 0.0 0.0 0.0
  CHANNELS 6 Xposition Yposition Zposition Zrotation Yrotation Xrotation
  JOINT LHipJoint
  {
    OFFSET 0.0 0.0 0.0
    CHANNELS 3 Zrotation Yrotation Xrotation
    JOINT LeftUpLeg
    {
      OFFSET 1.363059998 -1.794630051 0.839290023
      CHANNELS 3 Zrotation Yrotation Xrotation
      JOINT LeftLeg
      {
        OFFSET 2.448110104 -6.726130009 0.0
        CHANNELS 3 Zrotation Yrotation Xrotation
        JOINT LeftFoot
        {
          OFFSET 2.562200069 -7.039589882 0.0
          CHANNELS 3 Zrotation Yrotation Xrotation
          JOINT LeftToeBase
          {
            OFFSET 0.157639995 -0.433109999 2.322550058
            CHANNELS 3 Zrotation Yrotation Xrotation
            End Site
            {
              OFFSET 0.0 -0.0 1.189659953
            }
          }
        }
      }
    }
  }
  JOINT RHipJoint
  {
    OFFSET 0.0 0.0 0.0
    CHANNELS 3 Zrotation Yrotation Xrotation
    JOINT RightUpLeg
    {
      OFFSET -1.305520058 -1.794630051 0.839290023
      CHANNELS 3 Zrotation Yrotation Xrotation
      JOINT RightLeg
      {
        OFFSET -2.54253006 -6.985549927 0.0
        CHANNELS 3 Zrotation Yrotation Xrotation
        JOINT RightFoot
        {
          OFFSET -2.568259954 -7.056230068 0.0
          CHANNELS 3 Zrotation Yrotation Xrotation
          JOINT RightToeBase
          {
            OFFSET -0.164729998 -0.452589989 2.363149881
            CHANNELS 3 Zrotation Yrotation Xrotation
            End Site
            {
              OFFSET -0.0 -0.0 1.21081996
            }
          }
        }
      }
    }
  }
  JOINT LowerBack
  {
    OFFSET 0.0 0.0 0.0
    CHANNELS 3 Zrotation Yrotation Xrotation
    JOINT Spine
    {
      OFFSET 0.028270001 2.035589933 -0.193379998
      CHANNELS 3 Zrotation Yrotation Xrotation
      JOINT Spine1
      {
        OFFSET 0.05672 2.04885006 -0.042750001
        CHANNELS 3 Zrotation Yrotation Xrotation
        JOINT Neck
        {
          OFFSET 0.0 0.0 0.0
          CHANNELS 3 Zrotation Yrotation Xrotation
          JOINT Neck1
          {
            OFFSET -0.054170001 1.74624002 0.172020003
            CHANNELS 3 Zrotation Yrotation Xrotation
            JOINT Head
            {
              OFFSET 0.10407 1.761360049 -0.123970002
              CHANNELS 3 Zrotation Yrotation Xrotation
              End Site
              {
                OFFSET 0.0372 1.770439982 -0.062410001
              }
            }
          }
        }
        JOINT LeftShoulder
        {
          OFFSET 0.0 0.0 0.0
          CHANNELS 3 Zrotation Yrotation Xrotation
          JOINT LeftArm
          {
            OFFSET 3.362410069 1.200889945 -0.311210006
            CHANNELS 3 Zrotation Yrotation Xrotation
            JOINT LeftForeArm
            {
              OFFSET 4.982999802 -0.0 -0.0
              CHANNELS 3 Zrotation Yrotation Xrotation
              JOINT LeftHand
              {
                OFFSET 3.483560085 -0.0 -0.0
                CHANNELS 3 Zrotation Yrotation Xrotation
                JOINT LeftFingerBase
                {
                  OFFSET 0.0 0.0 0.0
                  CHANNELS 3 Zrotation Yrotation Xrotation
                  JOINT LeftHandIndex1
                  {
                    OFFSET 0.715260029 -0.0 -0.0
                    CHANNELS 3 Zrotation Yrotation Xrotation
                    End Site
                    {
                      OFFSET 0.576659977 -0.0 -0.0
                    }
                  }
                }
                JOINT LThumb
                {
                  OFFSET 0.0 0.0 0.0
                  CHANNELS 3 Zrotation Yrotation Xrotation
                  End Site
                  {
                    OFFSET 0.585470021 -0.0 0.585470021
                  }
                }
              }
            }
          }
        }
        JOINT RightShoulder
        {
          OFFSET 0.0 0.0 0.0
          CHANNELS 3 Zrotation Yrotation Xrotation
          JOINT RightArm
          {
            OFFSET -3.136600018 1.374050021 -0.404650003
            CHANNELS 3 Zrotation Yrotation Xrotation
            JOINT RightForeArm
            {
              OFFSET -5.241899967 -0.0 -0.0
              CHANNELS 3 Zrotation Yrotation Xrotation
              JOINT RightHand
              {
                OFFSET -3.444169998 -0.0 -0.0
                CHANNELS 3 Zrotation Yrotation Xrotation
                JOINT RightFingerBase
                {
                  OFFSET 0.0 0.0 0.0
                  CHANNELS 3 Zrotation Yrotation Xrotation
                  JOINT RightHandIndex1
                  {
                    OFFSET -0.622529984 -0.0 -0.0
                    CHANNELS 3 Zrotation Yrotation Xrotation
                    End Site
                    {
                      OFFSET -0.501900017 -0.0 -0.0
                    }
                  }
                }
                JOINT RThumb
                {
                  OFFSET 0.0 0.0 0.0
                  CHANNELS 3 Zrotation Yrotation Xrotation
                  End Site
                  {
                    OFFSET -0.509559989 -0.0 0.509559989
                  }
                }
              }
            }
          }
        }
      }
    }
  }
}
MOTION
Frames: 11
Frame Time: 0.0083333
-6.933942795 20.707399368 12.892978668 -166.261001587 66.302787781 -157.295013428 0.0 -0.0 0.0 -6.743400097 7.023900032 -46.504009247 19.326496124 19.989091873 88.030593872 0.415300012 -3.636999846 -11.470599174 0.510899961 4.581600666 12.719000816 0.0 -0.0 0.0 31.087797165 11.500204086 -44.195705414 -10.856402397 -17.864099503 62.314308167 -2.199199915 5.071199417 -26.929803848 -1.675699472 -8.155199051 23.186601639 -1.88610065 -5.345301628 22.34000206 3.073400021 -6.602899551 5.656099796 6.109499931 -2.991300106 -5.588700294 -6.511198997 -4.334700584 -11.387599945 12.662099838 -3.562899351 -13.405897141 4.872298717 -1.381700039 -1.706899881 0.0 -0.0 0.0 -23.95980072 -73.854988098 8.273498535 16.787603378 -26.57690239 -3.991801262 0.0 -0.0 25.904699326 10.018898964 -11.7833004 -2.066200256 -7.125 0.0 0.0 -11.961797714 18.165193558 7.808598518 0.0 -0.0 0.0 69.962104797 11.338101387 -0.855397522 -145.056900024 44.771400452 -105.226791382 0.0 0.0 -34.689491272 -5.875298977 -13.739199638 1.399999738 7.125 -0.0 0.0 19.393299103 -42.917900085 1.038599372 
-6.914743423 20.776199341 12.866378784 -166.79598999 66.819786072 -157.588989258 0.0 -0.0 0.0 -6.288100243 6.640402317 -48.349899292 20.215511322 19.998893738 90.630088806 0.505700111 -5.06690073 -12.662901878 1.062400103 6.553100109 18.39789772 0.0 -0.0 0.0 30.962398529 11.264306068 -43.578712463 -10.461601257 -17.661397934 61.020397186 -2.118600368 4.633399963 -26.472696304 -1.444000244 -7.596702099 21.495597839 -1.555699706 -5.438799381 22.138105392 2.235700369 -6.713600636 5.887899876 5.006999493 -3.052600145 -5.370399952 -5.32379961 -4.267700195 -12.0481987 13.025499344 -3.559100866 -12.944701195 4.768699646 -1.397300124 -1.481799722 0.0 -0.0 0.0 -26.662590027 -74.971206665 9.651988983 15.831299782 -25.291296005 -3.573599815 0.0 -0.0 28.158700943 11.114400864 -13.599902153 -2.644800901 -7.125 0.0 0.0 -11.147197723 16.296295166 7.7205019 0.0 -0.0 0.0 71.588600159 10.16340065 0.58870101 -146.467407227 43.735401154 -106.211090088 0.0 0.0 -32.501499176 -6.708397865 -14.322598457 1.666699648 7.125 -0.0 0.0 18.865503311 -43.558311462 0.69769907 
-6.871742249 20.879600525 12.811979294 -166.865005493 67.41129303 -157.722015381 0.0 -0.0 0.0 -5.955498695 6.239898205 -49.421787262 20.930906296 19.979192734 92.722602844 0.643100083 -5.099700451 -14.280900955 1.128200412 6.746400356 18.966100693 0.0 -0.0 0.0 30.810491562 11.344400406 -42.51650238 -10.153199196 -17.495101929 59.999210358 -2.081899881 5.154799938 -26.157499313 -1.56129992 -7.885399818 22.366399765 -1.696400046 -5.112299919 22.602100372 2.307899714 -6.320199013 5.714600086 5.125799179 -2.845099449 -5.807198048 -7.661401272 -4.66350174 -11.371803284 14.294701576 -3.772399426 -13.405902863 5.571300983 -1.450399995 -1.595400095 0.0 -0.0 0.0 -37.441871643 -76.680480957 15.423574448 14.578499794 -23.555700302 -3.055500746 0.0 -0.0 32.881401062 13.669600487 -15.716596603 -3.769300222 -7.125 0.0 0.0 -9.398200989 13.982302666 6.944801331 0.0 -0.0 0.0 71.741409302 8.919299126 0.244401589 -147.288284302 43.107311249 -106.775283813 0.0 0.0 -30.869501114 -6.393199444 -14.898201942 1.650100112 7.125 -0.0 0.0 19.337602615 -44.069503784 0.46219933 
-6.863641739 20.943399429 12.777679443 -166.25100708 67.844520569 -157.347000122 0.0 -0.0 0.0 -5.134799957 6.249800682 -50.682910919 21.718896866 19.928998947 95.031295776 0.692799926 -5.75469923 -14.832097054 1.200199723 6.950798988 19.569801331 0.0 -0.0 0.0 31.236795425 11.082808495 -41.326816559 -9.746501923 -17.264797211 58.637695312 -2.014200211 3.736200094 -25.93189621 -1.078699946 -6.601599693 18.540300369 -1.130099773 -4.929099083 22.991300583 2.073000193 -5.959600449 5.749801159 4.496499062 -2.659299135 -6.089198589 -6.156400204 -4.791500092 -11.774600983 12.759799004 -4.222498894 -13.10490036 4.808701038 -1.708199978 -1.501399875 0.0 -0.0 0.0 -41.122257233 -77.294677734 18.227464676 14.133301735 -22.92490387 -2.879800558 0.0 -0.0 34.067798615 15.852899551 -16.35549736 -4.571900845 -7.125 0.0 0.0 -7.946598053 13.133299828 5.992299557 0.0 -0.0 0.0 74.153198242 8.831300735 -0.952299237 -147.831390381 42.68119812 -107.144981384 0.0 0.0 -28.288097382 -5.096899033 -15.591498375 1.373299479 7.125 -0.0 0.0 20.721096039 -44.576194763 0.226901799 
-6.840242386 21.019300461 12.697079659 -166.472000122 68.219810486 -157.215011597 0.0 -0.0 0.0 -4.366600513 6.201800346 -52.765708923 22.455804825 19.854795456 97.197113037 0.662699997 -7.438800812 -14.641002655 1.187000036 6.913799763 19.460401535 0.0 -0.0 0.0 31.049097061 11.189393997 -40.866703033 -9.411997795 -17.065597534 57.504196167 -1.988099933 4.872799397 -25.573200226 -1.3974998 -7.478599548 21.141300201 -1.54460001 -4.783200264 23.048799515 2.092800379 -5.879799843 5.606600761 4.744600773 -2.617300272 -6.235700607 -7.680499077 -5.075700283 -12.016902924 13.75510025 -4.457499981 -12.522200584 5.350800514 -1.762100458 -1.18690002 0.0 -0.0 0.0 -38.77627182 -76.493972778 17.798883438 14.406499863 -23.312900543 -2.987099648 0.0 -0.0 31.805606842 17.148897171 -15.802300453 -4.803298473 -7.125 0.0 0.0 -7.065401077 13.572200775 5.251000881 0.0 -0.0 0.0 72.958404541 7.538301468 0.540201247 -148.592803955 42.069507599 -107.658195496 0.0 0.0 -26.663000107 -9.092700005 -17.036100388 2.684499502 7.125 -0.0 0.0 17.704597473 -46.425991058 -0.642897546 
-6.826942444 21.09059906 12.639279366 -166.598999023 68.468978882 -157.036010742 0.0 -0.0 0.0 -3.549100637 5.708202362 -54.747806549 23.179069519 19.755918503 99.33139801 0.679499865 -9.124199867 -15.085700989 0.731000125 5.462500095 15.232400894 0.0 -0.0 0.0 31.178096771 10.784296989 -40.357692719 -9.015399933 -16.817598343 56.143287659 -1.948900104 4.690000057 -25.334804535 -1.174399734 -6.878500938 19.3560009 -1.692500114 -4.794599533 22.905599594 1.90019989 -5.953499794 5.598400593 4.625498772 -2.657299757 -6.171699524 -5.564600945 -4.725500584 -11.666800499 12.404899597 -4.183500767 -13.41340065 4.608399868 -1.716000319 -1.642600656 0.0 -0.0 0.0 -33.334114075 -75.056297302 16.189109802 15.110797882 -24.300296783 -3.27139926 0.0 -0.0 27.836301804 17.854400635 -14.795999527 -4.702599525 -7.125 0.0 0.0 -6.562199116 14.541698456 4.735999584 0.0 -0.0 0.0 73.864593506 6.932898521 1.171699524 -149.495010376 41.322299957 -108.258308411 0.0 0.0 -24.560695648 -10.909399986 -17.949398041 3.39929986 7.125 -0.0 0.0 16.388204575 -47.544406891 -1.055804014 
-6.804641724 21.171100616 12.615779877 -165.380020142 68.825561523 -156.108032227 0.0 -0.0 0.0 -2.5079 5.743701458 -55.9416008 23.8242836 19.645706177 101.245399475 0.749599934 -10.198197365 -15.982000351 0.352500021 3.814700842 10.555902481 0.0 -0.0 0.0 31.736501694 10.305006981 -39.153205872 -8.621397972 -16.557800293 54.771511078 -1.843999743 3.931000471 -24.732000351 -0.715199828 -5.404498577 15.065897942 -1.479800344 -4.871700287 23.011005402 1.8125 -5.984500408 5.887299538 4.409899712 -2.673899889 -5.939399719 -8.914301872 -4.898200035 -11.964798927 15.488396645 -4.019899368 -12.206498146 6.120800018 -1.505099893 -1.041399956 0.0 -0.0 0.0 -27.907600403 -73.255012512 14.503298759 16.217699051 -25.814998627 -3.740297794 0.0 -0.0 23.752298355 17.335800171 -12.691599846 -3.923200846 -7.125 0.0 0.0 -6.878100872 16.765897751 4.635499001 0.0 -0.0 0.0 73.601608276 6.731501102 1.158000708 -150.052978516 40.84790802 -108.625091553 0.0 0.0 -23.124000549 -11.672698975 -18.496099472 3.74979949 7.125 -0.0 0.0 15.88860321 -48.180194855 -1.27660203 
-6.780643463 21.238500595 12.533380508 -164.414993286 68.476097107 -154.820022583 0.0 -0.0 0.0 -1.508299708 5.016499996 -58.097801208 24.465114594 19.515104294 103.157196045 0.74750042 -10.859800339 -16.120004654 0.326399982 3.671900272 10.15540123 0.0 -0.0 0.0 32.07989502 9.707303047 -38.961502075 -8.241698265 -16.294202805 53.428600311 -1.714000344 3.856300592 -23.820299149 -0.510699987 -4.580799103 12.716697693 -0.176899835 -5.307400227 22.470697403 1.585600019 -6.272099495 6.056898594 3.451900005 -2.828599691 -5.629199982 -7.290699482 -4.598999977 -12.564299583 14.616798401 -3.804599047 -12.013900757 5.567198753 -1.422999859 -0.993799806 0.0 -0.0 0.0 -24.704200745 -72.397903442 12.532997131 16.607599258 -26.337598801 -3.911598921 0.0 -0.0 22.523899078 16.078897476 -14.490199089 -4.125099182 -7.125 0.0 0.0 -7.7616992 15.020800591 5.536699772 0.0 -0.0 0.0 74.796905518 6.65860033 1.980701566 -150.792892456 40.203994751 -109.105895996 0.0 0.0 -19.785200119 -12.568897247 -18.938501358 4.138799667 7.125 -0.0 0.0 15.221705437 -48.7394104 -1.434406161 
-6.771741867 21.316299438 12.475680351 -162.276000977 68.741188049 -152.683013916 0.0 -0.0 0.0 -0.006600266 5.698000431 -59.690395355 25.00437355 19.3887043 104.776397705 0.682300031 -12.702100754 -16.07900238 0.24379997 3.177499771 8.773299217 0.0 -0.0 0.0 32.856403351 10.022896767 -37.890193939 -7.886198997 -16.034900665 52.151611328 -1.669100046 4.786199093 -23.354801178 -0.773400068 -5.615200043 15.671901703 0.472799957 -5.084498882 22.358299255 1.243399858 -5.864399433 6.176700115 2.600099564 -2.632499456 -5.568998814 -3.600599527 -4.478700638 -12.176802635 12.770599365 -4.016500473 -13.014798164 4.383700371 -1.687199593 -1.496800065 0.0 -0.0 0.0 -26.308418274 -73.534202576 13.487815857 15.835805893 -25.2976017 -3.575501204 0.0 -0.0 23.868301392 15.836501122 -11.712202072 -3.295599937 -7.125 0.0 0.0 -7.917699814 17.887397766 5.152600288 0.0 -0.0 0.0 77.105110168 6.051700115 2.835700274 -151.705184937 39.386192322 -109.689788818 0.0 0.0 -15.736797333 -14.245500565 -19.754800797 4.904600143 7.125 -0.0 0.0 13.951796532 -49.79139328 -1.676999211 
-6.752542496 21.379499435 12.39838028 -162.177993774 69.337692261 -152.789016724 0.0 -0.0 0.0 0.365500093 6.282402992 -60.949317932 25.461584091 19.269298553 106.157806396 0.664500058 -14.006601334 -16.389499664 0.084999993 1.880599737 5.175798893 0.0 -0.0 0.0 32.757602692 10.132398605 -36.807701111 -7.593299866 -15.811797142 51.084209442 -1.623800278 5.073200226 -22.987104416 -0.927300096 -6.134501457 17.175203323 -0.328799903 -5.574800014 22.934402466 1.527099848 -6.645498753 6.105501175 3.612601042 -3.003400564 -5.780700684 -4.603098869 -3.787400246 -11.314099312 12.621700287 -2.937099695 -13.804299355 4.564001083 -1.155700088 -1.934800148 0.0 -0.0 0.0 -30.786525726 -72.512641907 13.563512802 15.229399681 -24.464698792 -3.320399523 0.0 -0.0 27.355400085 16.200498581 -10.956100464 -3.16059947 -7.125 0.0 0.0 -7.667299747 18.639204025 4.85820055 0.0 -0.0 0.0 77.784011841 6.997800827 5.22560215 -152.038513184 39.080680847 -109.900604248 0.0 0.0 -12.09319973 -14.168897629 -20.323503494 5.011099815 7.125 -0.0 0.0 14.245499611 -50.340301514 -1.908799052 
-6.728942871 21.423999786 12.32378006 -163.399002075 69.639511108 -153.643005371 0.0 -0.0 0.0 0.306400031 6.231800079 -63.005195618 25.869791031 19.153089523 107.398200989 0.626500368 -14.722304344 -16.351503372 0.035800006 1.221400023 3.358100414 0.0 -0.0 0.0 32.290298462 10.118796349 -36.637001038 -7.343700886 -15.614600182 50.162399292 -1.551499963 4.594600201 -22.507200241 -0.782199919 -5.64649868 15.762094498 -1.18690002 -5.506700993 23.289400101 1.974600077 -6.735199928 5.779399872 4.654798985 -3.03670001 -6.151999474 -5.142798901 -3.838699579 -10.405299187 11.586701393 -2.955400467 -15.121001244 4.36689949 -1.170400143 -2.489699841 0.0 -0.0 0.0 -30.308578491 -71.607383728 13.495378494 15.332102776 -24.606702805 -3.363000631 0.0 -0.0 26.204500198 15.981102943 -12.601499557 -3.575300455 -7.125 0.0 0.0 -7.815402031 16.964902878 5.244300365 0.0 -0.0 0.0 77.458686829 6.192400455 6.712297916 -152.739105225 38.426898956 -110.339096069 0.0 0.0 -8.288499832 -16.072301865 -20.639003754 5.798701763 7.125 -0.0 0.0 12.537696838 -50.95879364 -1.865697742 
